# xmcd CD database file
#
# Track frame offsets:
#	150
#	19910
#	37568
#	55044
#	69510
#	84276
#	106913
#	123886
#	137872
#	153320
#	173946
#	194821
#	252741
#
# Disc length: 3855 seconds
#
# Revision: 1
# Processed by: cddbd v1.4PL0 Copyright (c) Steve Scherf et al.
# Submitted via: CDex 1.40Beta9
#
DISCID=ab0f0d0d
DTITLE=Little Stevie and The Business - Live Portfolio
DYEAR=2001
DGENRE=Blues
TTITLE0=Come On Everybody
TTITLE1=Follow Your Heart
TTITLE2=Matchbox
TTITLE3=Somebody's Reading My Mail
TTITLE4=Checking On My Baby
TTITLE5=Big Fat Mama
TTITLE6=My Next Ex-Wife
TTITLE7=Confidence Man
TTITLE8=Someday
TTITLE9=Somehow Somewhere Someway
TTITLE10=Run Me Down
TTITLE11=Hipshake
TTITLE12=Ridin On The L&N
EXTD=YEAR: 2001 ID3G: 0
EXTT0=
EXTT1=
EXTT2=
EXTT3=
EXTT4=
EXTT5=
EXTT6=
EXTT7=
EXTT8=
EXTT9=
EXTT10=
EXTT11=
EXTT12=
PLAYORDER=
